<svg width="22" height="25" viewBox="0 0 22 25" fill="none" xmlns="http://www.w3.org/2000/svg">
<g id="Wheelchair_symbol 1" clip-path="url(#clip0_17_207)">
<path id="Vector" fill-rule="evenodd" clip-rule="evenodd" d="M7.43934 4.54418C8.55454 4.44079 9.42098 3.47607 9.42098 2.34769C9.42098 1.13317 8.43444 0.142578 7.22487 0.142578C6.01531 0.142578 5.02881 1.13317 5.02881 2.34769C5.02881 2.71807 5.13173 3.09706 5.30331 3.41577L6.08581 14.4717L14.1449 14.4739L17.4504 22.2506L21.7902 20.5416L21.1182 18.9348L18.6894 19.8151L15.4912 12.4011L7.99799 12.4516L7.89512 11.0515L13.3196 11.0537V8.982L7.68819 8.97979L7.43934 4.54418Z" fill="#FFFFFF"/>
<path id="Vector_2" fill-rule="evenodd" clip-rule="evenodd" d="M15.5447 20.3996C14.1845 23.0994 11.3375 24.8781 8.30072 24.8781C3.84045 24.8781 0.202637 21.2254 0.202637 16.7468C0.202637 13.6023 2.10064 10.6801 4.93283 9.38477L5.11611 11.7863C3.44095 12.8462 2.4083 14.7587 2.4083 16.7633C2.4083 20.0122 5.04726 22.6619 8.28283 22.6619C11.243 22.6619 13.7672 20.3809 14.1115 17.4546L15.5447 20.3996Z" fill="#FFFFFF"/>
</g>
<defs>
<clipPath id="clip0_17_207">
<rect width="21.5876" height="24.7358" fill="white" transform="translate(0.202637 0.142578)"/>
</clipPath>
</defs>
</svg>
