<svg width="146" height="30" viewBox="0 0 146 30" fill="none" xmlns="http://www.w3.org/2000/svg">
<path d="M100.691 12.5783C100.691 13.9158 101.421 14.5846 103.344 15.0219C104.998 15.382 105.315 15.8193 105.315 16.5137C105.315 17.3111 104.633 17.8513 103.66 17.8513C102.662 17.8513 101.908 17.5169 101.056 16.7195L101.008 16.6681L100.375 17.4397L100.424 17.4912C101.373 18.3914 102.395 18.803 103.611 18.803C105.193 18.803 106.312 17.8255 106.312 16.4366C106.312 15.1762 105.534 14.456 103.757 14.0444C102.03 13.6586 101.713 13.2214 101.713 12.5269C101.713 11.7552 102.37 11.2408 103.295 11.2408C104.098 11.2408 104.804 11.5237 105.485 12.1153L105.534 12.1668L106.118 11.3437L106.069 11.3179C105.217 10.5977 104.414 10.2891 103.319 10.2891C101.786 10.2891 100.691 11.2665 100.691 12.5783Z" fill="#FFFFFF"/>
<path d="M111.129 11.3955C112.419 11.3955 113.149 12.0128 113.149 13.0932C113.149 14.1479 112.321 14.8424 111.08 14.8424H109.231V11.3697H111.129V11.3955ZM108.306 10.418H108.258V18.7009H109.255V15.8199H111.08C112.613 15.8199 114.171 14.971 114.171 13.0932C114.171 11.4469 113.003 10.418 111.226 10.418H108.306Z" fill="#FFFFFF"/>
<path d="M121.544 10.418H115.898V18.7012H121.641V17.7494H116.872V15.0226H121.106V14.0451H116.872V11.3698H121.592V10.418H121.544Z" fill="#FFFFFF"/>
<path d="M130.136 10.4164H129.09C129.09 10.4164 126.584 14.3007 126.486 14.455C126.389 14.3007 123.907 10.4164 123.907 10.4164H122.715C122.715 10.4164 125.951 15.4068 125.976 15.4325V18.6995H126.973V15.4068C126.997 15.3811 130.234 10.3906 130.234 10.3906H130.136V10.4164Z" fill="#FFFFFF"/>
<path d="M137.388 10.418H131.742V18.7012H137.509V17.7494H132.74V15.0226H136.95V14.0451H132.74V11.3698H137.461V10.418H137.388Z" fill="#FFFFFF"/>
<path d="M142.739 11.3955C143.931 11.3955 144.661 11.9872 144.661 12.9389C144.661 13.9422 143.907 14.5853 142.739 14.5853H140.427V11.3955H142.739ZM139.478 10.418H139.43V18.7012H140.427V15.5371H142.544C142.569 15.5885 144.783 18.7012 144.783 18.7012H146C146 18.7012 143.712 15.4856 143.615 15.3313C144.929 15.0483 145.683 14.1737 145.683 12.9132C145.683 12.2444 145.464 11.6527 145.075 11.2411C144.564 10.7009 143.761 10.418 142.836 10.418H139.478Z" fill="#FFFFFF"/>
<path d="M50.1023 10.418H42.9727V11.3955H46.063V18.7012H47.0607V11.3955H50.1753V10.418H50.1023Z" fill="#FFFFFF"/>
<path d="M52.7528 10.418H51.8281V18.7012H52.8258V10.418H52.7528Z" fill="#FFFFFF"/>
<path d="M55.042 12.5783C55.042 13.9158 55.772 14.5846 57.6943 15.0219C59.349 15.382 59.6653 15.8193 59.6653 16.5137C59.6653 17.3111 58.984 17.8513 58.0107 17.8513C57.013 17.8513 56.2587 17.5169 55.407 16.7195L55.3583 16.6681L54.75 17.4397L54.7987 17.4912C55.7477 18.3914 56.7697 18.803 57.9863 18.803C59.568 18.803 60.6873 17.8255 60.6873 16.4366C60.6873 15.1762 59.9087 14.456 58.1323 14.0444C56.4047 13.6586 56.0883 13.2214 56.0883 12.5269C56.0883 11.7552 56.7453 11.2408 57.67 11.2408C58.473 11.2408 59.1787 11.5237 59.86 12.1153L59.9087 12.1668L60.4927 11.3437L60.444 11.3179C59.5923 10.5977 58.7893 10.2891 57.6943 10.2891C56.137 10.2891 55.042 11.2665 55.042 12.5783Z" fill="#FFFFFF"/>
<path d="M68.8396 10.418H67.9149V14.0451H63.5836V10.418H62.5859V18.7012H63.5836V15.0226H67.9149V18.7012H68.9126V10.418H68.8396Z" fill="#FFFFFF"/>
<path d="M84.5345 12.3222L86.0919 15.5892H82.9529L84.5345 12.3222ZM84.5345 10.3672L80.5195 18.7275H81.5415L82.6122 16.5667H86.4812L87.4789 18.7275H88.5495L84.5345 10.3672Z" fill="#FFFFFF"/>
<path d="M96.3131 10.418H95.4127V16.849C95.2181 16.5661 90.6434 10.418 90.6434 10.418H89.7188V18.7012H90.6921V12.1158C90.8867 12.3987 95.6074 18.7012 95.6074 18.7012H96.3861V10.418H96.3131Z" fill="#FFFFFF"/>
<path d="M78.2319 10.418H78.2075L75.2632 16.6941L72.3189 10.418H72.2702H71.2969V18.7004H72.2702V12.5786L75.2632 18.7776H75.3119L78.2319 12.6043V18.7004H79.2295V10.418H78.2319Z" fill="#FFFFFF"/>
<path d="M14.162 1.49193V1.38903L1.63033 6.12204L0.608333 5.7362L14.162 0.59163V0.488733L27.6913 5.6333L26.4017 6.12204L14.162 1.49193ZM27.6913 6.99662L26.4017 7.48535L25.3553 7.09951L26.645 6.61078L27.6913 6.99662ZM27.6913 8.38565L26.4017 8.87438L25.3553 8.48854L26.645 7.99981L27.6913 8.38565ZM27.6913 9.77468L26.4017 10.2634L25.3553 9.87757L26.6693 9.38884L27.6913 9.77468ZM27.6913 11.1637L26.4017 11.6525L25.3553 11.2666L26.6693 10.7779L27.6913 11.1637ZM27.6913 12.5528L23.2383 14.2247L22.192 13.8389L26.6693 12.1669L27.6913 12.5528ZM27.5697 16.3083L26.353 16.7713L22.192 15.2022L23.433 14.7392L27.5697 16.3083ZM27.5697 17.6973L26.353 18.1603L25.331 17.7745L26.572 17.3115L27.5697 17.6973ZM27.5697 19.0864L26.353 19.5494L25.331 19.1635L26.572 18.7005L27.5697 19.0864ZM27.594 20.4754L26.3773 20.9384L25.3553 20.5526L26.5963 20.0896L27.594 20.4754ZM27.594 21.8644L26.3773 22.3274L25.3553 21.9416L26.5963 21.4786L27.594 21.8644ZM27.594 23.2535L14.162 28.3466V28.4495L0.608333 23.3049L1.898 22.8162L14.1377 27.4463V27.5492L26.5477 22.8676L27.594 23.2535ZM0.608333 21.9416L1.898 21.4529L2.94433 21.8387L1.63033 22.3274L0.608333 21.9416ZM0.632667 20.5526L1.92233 20.0638L2.94433 20.4497L1.65467 20.9384L0.632667 20.5526ZM0.632667 19.1635L1.92233 18.6748L2.96867 19.0606L1.679 19.5494L0.632667 19.1635ZM0.632667 17.7745L1.92233 17.2858L2.96867 17.6716L1.65467 18.1603L0.632667 17.7745ZM0.632667 16.3855L4.76933 14.8164L5.81567 15.2022L1.65467 16.7713L0.632667 16.3855ZM0.657 12.6814L1.87367 12.2184L6.01033 13.7617L4.76933 14.2247L0.657 12.6814ZM0.632667 11.2923L1.84933 10.8293L2.87133 11.2152L1.65467 11.6782L0.632667 11.2923ZM0.632667 9.9033L1.84933 9.44029L2.87133 9.82613L1.63033 10.2891L0.632667 9.9033ZM0.632667 8.51427L1.84933 8.05126L2.87133 8.4371L1.63033 8.90011L0.632667 8.51427ZM22.703 7.48535L14.162 4.27V4.16711L5.30467 7.51108L4.28267 7.12523L14.162 3.3697V3.26681L24.017 6.99662L22.703 7.48535ZM23.506 7.79403L24.82 7.30529L25.8663 7.69113L24.5523 8.17987L23.506 7.79403ZM22.703 8.87438L21.6567 8.48854L22.9707 7.99981L24.017 8.38565L22.703 8.87438ZM23.506 9.18306L24.82 8.69433L25.842 9.08017L24.528 9.5689L23.506 9.18306ZM22.703 10.2634L21.6567 9.87757L22.9707 9.38884L24.017 9.77468L22.703 10.2634ZM23.506 10.5721L24.82 10.0834L25.8663 10.4692L24.5523 10.9579L23.506 10.5721ZM19.5397 12.8357L18.4933 12.4499L22.9707 10.7779L24.017 11.1637L19.5397 12.8357ZM20.3427 13.1444L24.82 11.4467L25.842 11.8325L21.3647 13.5045L20.3427 13.1444ZM19.5397 14.2247L18.4933 13.8389L19.7343 13.3759L20.7807 13.7617L19.5397 14.2247ZM20.3427 14.5334L21.5837 14.0704L22.63 14.4562L21.389 14.9193L20.3427 14.5334ZM19.5397 15.6138L18.4933 15.2279L19.7343 14.7649L20.7807 15.1508L19.5397 15.6138ZM20.3427 15.9224L21.5837 15.4594L25.7447 17.0285L24.528 17.4915L20.3427 15.9224ZM22.6787 18.1861L18.4933 16.617L19.7343 16.154L23.9197 17.723L22.6787 18.1861ZM23.4817 18.469L24.7227 18.006L25.7447 18.3918L24.528 18.8549L23.4817 18.469ZM22.6787 19.5494L21.6567 19.1635L22.8733 18.7005L23.8953 19.0864L22.6787 19.5494ZM23.4817 19.858L24.7227 19.395L25.7447 19.7809L24.528 20.2439L23.4817 19.858ZM22.6787 20.9641L21.6323 20.5783L22.849 20.1153L23.8953 20.5011L22.6787 20.9641ZM23.506 21.2471L24.747 20.7841L25.769 21.1699L24.5523 21.6329L23.506 21.2471ZM4.79367 21.1442L3.47967 21.6329L2.43333 21.2471L3.74733 20.7583L4.79367 21.1442ZM5.59667 20.0638L6.643 20.4497L5.329 20.9384L4.28267 20.5526L5.59667 20.0638ZM4.79367 19.7552L3.47967 20.2439L2.45767 19.858L3.74733 19.3693L4.79367 19.7552ZM5.59667 18.6748L6.643 19.0606L5.329 19.5494L4.307 19.1635L5.59667 18.6748ZM4.818 18.3661L3.504 18.8549L2.45767 18.469L3.74733 17.9803L4.818 18.3661ZM8.468 16.2054L9.51433 16.5912L5.329 18.1603L4.28267 17.7488L8.468 16.2054ZM7.665 15.8967L3.504 17.4658L2.482 17.08L6.643 15.5109L7.665 15.8967ZM6.643 14.1218L7.68933 14.5077L6.81333 14.8421L5.767 14.4562L6.643 14.1218ZM7.85966 13.0672L6.61867 13.5302L2.482 11.9869L3.69867 11.5238L7.85966 13.0672ZM5.548 10.8036L9.68466 12.3727L8.44366 12.8357L4.307 11.2923L5.548 10.8036ZM4.745 10.5206L3.504 10.9837L2.482 10.5978L3.69867 10.1348L4.745 10.5206ZM5.548 9.44029L6.57 9.82613L5.329 10.2891L4.307 9.9033L5.548 9.44029ZM4.72067 9.13161L3.504 9.59463L2.482 9.20879L3.69867 8.74577L4.72067 9.13161ZM19.0287 8.87438L14.1863 7.04806V6.94517L9.02767 8.90011L7.98133 8.51427L14.1863 6.14776V6.04487L20.3427 8.38565L19.0287 8.87438ZM19.8317 9.18306L21.1457 8.69433L22.192 9.08017L20.878 9.5689L19.8317 9.18306ZM15.841 11.4467L14.7947 11.0608L19.2963 9.36312L20.3427 9.74896L15.841 11.4467ZM16.644 11.7553L21.1457 10.0576L22.1677 10.4435L17.6903 12.1412L16.644 11.7553ZM15.841 12.8357L14.7947 12.4499L16.0357 11.9869L17.082 12.3727L15.841 12.8357ZM16.644 13.1444L17.885 12.6814L18.9313 13.0672L17.6903 13.5302L16.644 13.1444ZM15.841 14.2247L14.7947 13.8389L16.0357 13.3759L17.082 13.7617L15.841 14.2247ZM16.644 14.5334L17.885 14.0704L18.9313 14.4562L17.6903 14.9193L16.644 14.5334ZM15.841 15.6138L14.7947 15.2279L16.0357 14.7649L17.082 15.1508L15.841 15.6138ZM16.644 15.9224L17.885 15.4594L18.9313 15.8453L17.6903 16.3083L16.644 15.9224ZM15.841 17.0028L14.7947 16.617L16.0357 16.154L17.082 16.5398L15.841 17.0028ZM16.644 17.3115L17.885 16.8485L22.0703 18.4176L20.8293 18.8806L16.644 17.3115ZM19.0043 19.5751L14.819 18.006L16.06 17.543L20.2453 19.1121L19.0043 19.5751ZM19.8073 19.858L21.0483 19.395L22.0703 19.7809L20.8293 20.2439L19.8073 19.858ZM8.49233 19.7552L7.17833 20.2696L6.132 19.8838L7.446 19.395L8.49233 19.7552ZM12.1667 17.5944L13.213 17.9803L9.00333 19.5494L7.957 19.1635L12.1667 17.5944ZM11.3637 17.2858L7.17833 18.8549L6.15633 18.469L10.3417 16.8999L11.3637 17.2858ZM9.51433 15.2022L8.63833 15.5366L7.592 15.1508L8.468 14.8164L9.51433 15.2022ZM8.44366 13.4531L9.49 13.8389L8.63833 14.1476L7.592 13.7617L8.44366 13.4531ZM10.3173 12.7585L11.3637 13.1444L10.4877 13.4788L9.44133 13.0929L10.3173 12.7585ZM11.534 11.6782L10.293 12.1412L6.132 10.5721L7.373 10.1091L11.534 11.6782ZM14.1863 12.064L13.14 11.6782L14.1863 11.2923L15.2327 11.6782L14.1863 12.064ZM14.1863 13.4531L13.14 13.0672L14.1863 12.6814L15.2327 13.0672L14.1863 13.4531ZM14.2107 14.8421L13.1643 14.4562L14.2107 14.0704L15.257 14.4562L14.2107 14.8421ZM14.1863 16.2311L13.14 15.8453L14.1863 15.4594L15.2327 15.8453L14.1863 16.2311ZM14.2107 17.6202L13.1643 17.2343L14.2107 16.8485L15.257 17.2343L14.2107 17.6202ZM11.3637 15.8967L10.512 16.2054L9.46566 15.8196L10.3417 15.5109L11.3637 15.8967ZM11.3637 14.5334L10.512 14.8678L9.46566 14.482L10.3173 14.1733L11.3637 14.5334ZM11.315 15.1508L12.1667 14.8164L13.213 15.2022L12.337 15.5366L11.315 15.1508ZM13.213 16.5912L12.3613 16.8999L11.315 16.5141L12.1667 16.1797L13.213 16.5912ZM13.1887 13.8389L12.337 14.1476L11.2907 13.7617L12.1423 13.4273L13.1887 13.8389ZM12.1423 12.064L13.1887 12.4499L12.337 12.7585L11.2907 12.3727L12.1423 12.064ZM14.162 21.4014V21.53L9.80633 19.8838L14.1863 18.2375L18.3717 19.8066L14.162 21.4014ZM14.162 7.5368V7.40819L18.4933 9.05445L13.9917 10.7522L9.83066 9.18306L14.162 7.5368ZM7.17833 9.59463L6.15633 9.20879L7.373 8.74577L8.41933 9.13161L7.17833 9.59463ZM9.198 9.41457L13.359 10.9837L12.118 11.4467L7.957 9.87757L9.198 9.41457ZM14.162 22.7904V22.9191L7.98133 20.5526L9.29533 20.0638L14.162 21.8901V21.993L19.199 20.0896L20.2453 20.4754L14.162 22.7904ZM14.162 24.1795V24.2824L6.132 21.2471L7.446 20.7583L14.162 23.3049V23.4078L21.024 20.8098L22.0703 21.1956L14.162 24.1795ZM14.162 4.75873V4.63011L22.1677 7.66541L20.8537 8.15415L14.162 5.6333V5.55614L7.154 8.20559L6.10767 7.81975L14.162 4.75873ZM3.47967 8.20559L2.45767 7.81975L3.67433 7.35674L4.69633 7.74258L3.47967 8.20559ZM5.52367 8.02553L6.57 8.41138L5.329 8.87438L4.307 8.48854L5.52367 8.02553ZM14.162 25.5942V25.6971L4.28267 21.9416L5.59667 21.4529L14.162 24.6939V24.7968L22.8977 21.5043L23.944 21.8901L14.162 25.5942ZM14.162 26.9576V27.0604L2.45767 22.6104L3.77167 22.1217L14.1863 26.0573V26.1601L24.7713 22.1731L25.7933 22.5589L14.162 26.9576ZM14.162 1.98066V1.87777L25.842 6.3021L24.528 6.79083L14.162 2.88096V2.77807L3.47967 6.81656L2.45767 6.43071L14.162 1.98066ZM0.632667 7.12523L1.84933 6.66222L2.87133 7.04806L1.63033 7.51108L0.632667 7.12523ZM28.3483 5.6333V5.45325L14.1863 0.10289V0L0 5.35036V5.50469V5.9677V5.99343H0.0243334L1.04633 6.37927L0.0243334 6.76511V6.91945V7.38246V7.40819H0.0486668L1.07067 7.79403L0.0243334 8.17987V8.30849V8.77149V8.79722L0.0486668 8.77149L1.07067 9.15734L0.0243334 9.54318V9.67179V10.1348V10.1605L0.0730003 10.1348L1.095 10.5206L0.0243334 10.9322V11.0608V11.5238V11.5753L0.0730003 11.5496L1.095 11.9354L0.0243334 12.347V12.4756V12.9386V12.99L0.0730003 12.9643L4.18533 14.5077L0.0243334 16.0768V16.5141V16.617L1.168 17.0543L0.0243334 17.4915V17.9031V18.0317L1.14367 18.469L0.0243334 18.9063V19.3179V19.4465L1.14367 19.858L0.0243334 20.2953V20.6812V20.8355L1.14367 21.2471L0.0243334 21.6586V21.993V22.1988L1.14367 22.6104L0.0243334 23.022V23.3564V23.5621L14.1863 28.9125V29.0154L28.3727 23.665V23.5879V23.1248L27.2047 22.6876L28.3727 22.2503V22.1988V21.7358L27.1803 21.2471L28.3483 20.8098V20.7583V20.2953L27.1803 19.858L28.3483 19.4208V19.3693V18.932L27.156 18.4947L28.3483 18.0574V18.0317V17.5687L27.156 17.1314L28.3483 16.6941V16.617V16.154L24.017 14.5334L28.3483 12.9129V12.5528V12.3984L27.1803 11.9611L28.3483 11.5238V11.2152V11.0094L27.2047 10.5721L28.3483 10.1348V9.77468V9.64607L27.2047 9.20879L28.3483 8.77149V8.38565V8.20559L27.2047 7.7683L28.3483 7.33101V6.97089V6.84228L27.2047 6.40499L28.3483 5.9677V5.6333Z" fill="#FFFFFF"/>
</svg>
