<?xml version="1.0" encoding="utf-8"?>
<!-- Generator: Adobe Illustrator 19.2.1, SVG Export Plug-In . SVG Version: 6.00 Build 0)  -->
<svg version="1.1" id="layer" xmlns="http://www.w3.org/2000/svg" xmlns:xlink="http://www.w3.org/1999/xlink" x="0px" y="0px"
	 viewBox="0 0 652 652" style="enable-background:new 0 0 652 652;" xml:space="preserve">
<style type="text/css">
	.st0{fill:#586069;}
</style>
<g>
	<path class="st0" d="M440.1,318.3L440.1,318.3c0,5.2,3,7.8,10.9,9.5c6.8,1.4,8.1,3.1,8.1,5.8c0,3.1-2.8,5.2-6.8,5.2
		c-4.1,0-7.2-1.3-10.7-4.4l-0.2-0.2l-2.6,3l0.2,0.2c3.9,3.5,8.1,5.1,13.1,5.1c6.5,0,11.1-3.8,11.1-9.2c0-4.9-3.2-7.7-10.5-9.3
		c-7.1-1.5-8.4-3.2-8.4-5.9c0-3,2.7-5,6.5-5c3.3,0,6.2,1.1,9,3.4l0.2,0.2l2.4-3.2l-0.2-0.1c-3.5-2.8-6.8-4-11.3-4
		C444.6,309.4,440.1,313.2,440.1,318.3"/>
	<path class="st0" d="M483,313.7c5.3,0,8.3,2.4,8.3,6.6c0,4.1-3.4,6.8-8.5,6.8h-7.6v-13.5H483z M471.4,309.9h-0.2v32.2h4.1v-11.2
		h7.5c6.3,0,12.7-3.3,12.7-10.6c0-6.4-4.8-10.4-12.1-10.4H471.4z"/>
</g>
<polygon class="st0" points="525.8,309.9 502.6,309.9 502.6,342.1 526.2,342.1 526.2,338.4 506.6,338.4 506.6,327.8 524,327.8 
	524,324 506.6,324 506.6,313.6 526,313.6 526,309.9 "/>
<g>
	<path class="st0" d="M561.1,309.9h-4.3c0,0-10.3,15.1-10.7,15.7c-0.4-0.6-10.6-15.7-10.6-15.7h-4.9c0,0,13.3,19.4,13.4,19.5v12.7
		h4.1v-12.8c0.1-0.1,13.4-19.5,13.4-19.5H561.1z"/>
</g>
<polygon class="st0" points="590.9,309.9 567.7,309.9 567.7,342.1 591.4,342.1 591.4,338.4 571.8,338.4 571.8,327.8 589.1,327.8 
	589.1,324 571.8,324 571.8,313.6 591.2,313.6 591.2,309.9 "/>
<g>
	<path class="st0" d="M612.9,313.7c4.9,0,7.9,2.3,7.9,6c0,3.9-3.1,6.4-7.9,6.4h-9.5v-12.4H612.9z M599.5,309.9h-0.2v32.2h4.1v-12.3
		h8.7c0.1,0.2,9.2,12.3,9.2,12.3h5c0,0-9.4-12.5-9.8-13.1c5.4-1.1,8.5-4.5,8.5-9.4c0-2.6-0.9-4.9-2.5-6.5c-2.1-2.1-5.4-3.2-9.2-3.2
		H599.5z"/>
</g>
<polygon class="st0" points="232.2,309.9 202.9,309.9 202.9,313.7 215.6,313.7 215.6,342.1 219.7,342.1 219.7,313.7 232.5,313.7 
	232.5,309.9 "/>
<polygon class="st0" points="243.1,309.9 239.3,309.9 239.3,342.1 243.4,342.1 243.4,309.9 "/>
<g>
	<path class="st0" d="M252.5,318.3L252.5,318.3c0,5.2,3,7.8,10.9,9.5c6.8,1.4,8.1,3.1,8.1,5.8c0,3.1-2.8,5.2-6.8,5.2
		c-4.1,0-7.2-1.3-10.7-4.4l-0.2-0.2l-2.5,3l0.2,0.2c3.9,3.5,8.1,5.1,13.1,5.1c6.5,0,11.1-3.8,11.1-9.2c0-4.9-3.2-7.7-10.5-9.3
		c-7.1-1.5-8.4-3.2-8.4-5.9c0-3,2.7-5,6.5-5c3.3,0,6.2,1.1,9,3.4l0.2,0.2l2.4-3.2l-0.2-0.1c-3.5-2.8-6.8-4-11.3-4
		C257,309.4,252.5,313.2,252.5,318.3"/>
</g>
<polygon class="st0" points="309.2,309.9 305.4,309.9 305.4,324 287.6,324 287.6,309.9 283.5,309.9 283.5,342.1 287.6,342.1 
	287.6,327.8 305.4,327.8 305.4,342.1 309.5,342.1 309.5,309.9 "/>
<path class="st0" d="M373.7,317.3l6.4,12.7h-12.9L373.7,317.3z M373.7,309.7l-16.5,32.5h4.2l4.4-8.4h15.9l4.1,8.4h4.4L373.7,309.7z"
	/>
<g>
	<path class="st0" d="M422.1,309.9h-3.7v25c-0.8-1.1-19.6-25-19.6-25H395v32.2h4v-25.6c0.8,1.1,20.2,25.6,20.2,25.6h3.2v-32.2H422.1
		z"/>
</g>
<polygon class="st0" points="347.8,309.9 347.8,309.9 347.7,309.9 335.6,334.3 323.5,309.9 323.3,309.9 323.3,309.9 319.3,309.9 
	319.3,342.1 323.3,342.1 323.3,318.3 335.6,342.4 335.8,342.4 347.8,318.4 347.8,342.1 351.9,342.1 351.9,309.9 "/>
<path class="st0" d="M84.5,275.2v-0.4L33,293.2l-4.2-1.5l55.7-20v-0.4l55.6,20l-5.3,1.9L84.5,275.2z M140.1,296.6l-5.3,1.9l-4.3-1.5
	l5.3-1.9L140.1,296.6z M140.1,302l-5.3,1.9l-4.3-1.5l5.3-1.9L140.1,302z M140.1,307.4l-5.3,1.9l-4.3-1.5l5.4-1.9L140.1,307.4z
	 M140.1,312.8l-5.3,1.9l-4.3-1.5l5.4-1.9L140.1,312.8z M140.1,318.2l-18.3,6.5l-4.3-1.5l18.4-6.5L140.1,318.2z M139.6,332.8l-5,1.8
	l-17.1-6.1l5.1-1.8L139.6,332.8z M139.6,338.2l-5,1.8l-4.2-1.5l5.1-1.8L139.6,338.2z M139.6,343.6l-5,1.8l-4.2-1.5l5.1-1.8
	L139.6,343.6z M139.7,349l-5,1.8l-4.2-1.5l5.1-1.8L139.7,349z M139.7,354.4l-5,1.8l-4.2-1.5l5.1-1.8L139.7,354.4z M139.7,359.8
	l-55.2,19.8v0.4l-55.7-20l5.3-1.9l50.3,18v0.4l51-18.2L139.7,359.8z M28.8,354.7l5.3-1.9l4.3,1.5l-5.4,1.9L28.8,354.7z M28.9,349.3
	l5.3-1.9l4.2,1.5l-5.3,1.9L28.9,349.3z M28.9,343.9l5.3-1.9l4.3,1.5l-5.3,1.9L28.9,343.9z M28.9,338.5l5.3-1.9l4.3,1.5l-5.4,1.9
	L28.9,338.5z M28.9,333.1l17-6.1l4.3,1.5l-17.1,6.1L28.9,333.1z M29,318.7l5-1.8l17,6l-5.1,1.8L29,318.7z M28.9,313.3l5-1.8l4.2,1.5
	l-5,1.8L28.9,313.3z M28.9,307.9l5-1.8l4.2,1.5l-5.1,1.8L28.9,307.9z M28.9,302.5l5-1.8l4.2,1.5l-5.1,1.8L28.9,302.5z M119.6,298.5
	L84.5,286v-0.4l-36.4,13l-4.2-1.5l40.6-14.6v-0.4l40.5,14.5L119.6,298.5z M122.9,299.7l5.4-1.9l4.3,1.5l-5.4,1.9L122.9,299.7z
	 M119.6,303.9l-4.3-1.5l5.4-1.9l4.3,1.5L119.6,303.9z M122.9,305.1l5.4-1.9l4.2,1.5l-5.4,1.9L122.9,305.1z M119.6,309.3l-4.3-1.5
	l5.4-1.9l4.3,1.5L119.6,309.3z M122.9,310.5l5.4-1.9l4.3,1.5l-5.4,1.9L122.9,310.5z M106.6,319.3l-4.3-1.5l18.4-6.5l4.3,1.5
	L106.6,319.3z M109.9,320.5l18.4-6.6l4.2,1.5l-18.4,6.5L109.9,320.5z M106.6,324.7l-4.3-1.5l5.1-1.8l4.3,1.5L106.6,324.7z
	 M109.9,325.9l5.1-1.8l4.3,1.5l-5.1,1.8L109.9,325.9z M106.6,330.1l-4.3-1.5l5.1-1.8l4.3,1.5L106.6,330.1z M109.9,331.3l5.1-1.8
	l17.1,6.1l-5,1.8L109.9,331.3z M119.5,340.1l-17.2-6.1l5.1-1.8l17.2,6.1L119.5,340.1z M122.8,341.2l5.1-1.8l4.2,1.5l-5,1.8
	L122.8,341.2z M119.5,345.4l-4.2-1.5l5-1.8l4.2,1.5L119.5,345.4z M122.8,346.6l5.1-1.8l4.2,1.5l-5,1.8L122.8,346.6z M119.5,350.9
	l-4.3-1.5l5-1.8l4.3,1.5L119.5,350.9z M122.9,352l5.1-1.8l4.2,1.5l-5,1.8L122.9,352z M46,351.6l-5.4,1.9l-4.3-1.5l5.4-1.9L46,351.6z
	 M49.3,347.4l4.3,1.5l-5.4,1.9l-4.3-1.5L49.3,347.4z M46,346.2l-5.4,1.9l-4.2-1.5l5.3-1.9L46,346.2z M49.3,342l4.3,1.5l-5.4,1.9
	l-4.2-1.5L49.3,342z M46.1,340.8l-5.4,1.9l-4.3-1.5l5.3-1.9L46.1,340.8z M61.1,332.4l4.3,1.5l-17.2,6.1l-4.3-1.6L61.1,332.4z
	 M57.8,331.2l-17.1,6.1l-4.2-1.5l17.1-6.1L57.8,331.2z M53.6,324.3l4.3,1.5l-3.6,1.3l-4.3-1.5L53.6,324.3z M58.6,320.2l-5.1,1.8
	l-17-6l5-1.8L58.6,320.2z M49.1,311.4l17,6.1l-5.1,1.8l-17-6L49.1,311.4z M45.8,310.3l-5.1,1.8l-4.2-1.5l5-1.8L45.8,310.3z
	 M49.1,306.1l4.2,1.5l-5.1,1.8l-4.2-1.5L49.1,306.1z M45.7,304.9l-5,1.8l-4.2-1.5l5-1.8L45.7,304.9z M104.5,303.9l-19.9-7.1v-0.4
	L63.4,304l-4.3-1.5l25.5-9.2v-0.4l25.3,9.1L104.5,303.9z M107.8,305.1l5.4-1.9l4.3,1.5l-5.4,1.9L107.8,305.1z M91.4,313.9l-4.3-1.5
	l18.5-6.6l4.3,1.5L91.4,313.9z M94.7,315.1l18.5-6.6l4.2,1.5L99,316.6L94.7,315.1z M91.4,319.3l-4.3-1.5l5.1-1.8l4.3,1.5L91.4,319.3
	z M94.7,320.5l5.1-1.8l4.3,1.5L99,322L94.7,320.5z M91.4,324.7l-4.3-1.5l5.1-1.8l4.3,1.5L91.4,324.7z M94.7,325.9l5.1-1.8l4.3,1.5
	l-5.1,1.8L94.7,325.9z M91.4,330.1l-4.3-1.5l5.1-1.8l4.3,1.5L91.4,330.1z M94.7,331.3l5.1-1.8l4.3,1.5l-5.1,1.8L94.7,331.3z
	 M91.4,335.5l-4.3-1.5l5.1-1.8l4.3,1.5L91.4,335.5z M94.7,336.7l5.1-1.8L117,341l-5.1,1.8L94.7,336.7z M104.4,345.5l-17.2-6.1
	l5.1-1.8l17.2,6.1L104.4,345.5z M107.7,346.6l5.1-1.8l4.2,1.5l-5.1,1.8L107.7,346.6z M61.2,346.2l-5.4,2l-4.3-1.5l5.4-1.9
	L61.2,346.2z M76.3,337.8l4.3,1.5l-17.3,6.1l-4.3-1.5L76.3,337.8z M73,336.6l-17.2,6.1l-4.2-1.5l17.2-6.1L73,336.6z M65.4,328.5
	l-3.6,1.3l-4.3-1.5l3.6-1.3L65.4,328.5z M61,321.7l4.3,1.5l-3.5,1.2l-4.3-1.5L61,321.7z M68.7,319l4.3,1.5l-3.6,1.3l-4.3-1.5
	L68.7,319z M73.7,314.8l-5.1,1.8l-17.1-6.1l5.1-1.8L73.7,314.8z M84.6,316.3l-4.3-1.5l4.3-1.5l4.3,1.5L84.6,316.3z M84.6,321.7
	l-4.3-1.5l4.3-1.5l4.3,1.5L84.6,321.7z M84.7,327.1l-4.3-1.5l4.3-1.5l4.3,1.5L84.7,327.1z M84.6,332.5l-4.3-1.5l4.3-1.5l4.3,1.5
	L84.6,332.5z M84.7,337.9l-4.3-1.5l4.3-1.5l4.3,1.5L84.7,337.9z M73,331.2l-3.5,1.2l-4.3-1.5l3.6-1.2L73,331.2z M73,325.9l-3.5,1.3
	l-4.3-1.5l3.5-1.2L73,325.9z M72.8,328.3l3.5-1.3l4.3,1.5l-3.6,1.3L72.8,328.3z M80.6,333.9l-3.5,1.2l-4.3-1.5l3.5-1.3L80.6,333.9z
	 M80.5,323.2l-3.5,1.2l-4.3-1.5l3.5-1.3L80.5,323.2z M76.2,316.3l4.3,1.5L77,319l-4.3-1.5L76.2,316.3z M84.5,352.6v0.5l-17.9-6.4
	l18-6.4l17.2,6.1L84.5,352.6z M84.5,298.7v-0.5l17.8,6.4l-18.5,6.6l-17.1-6.1L84.5,298.7z M55.8,306.7l-4.2-1.5l5-1.8l4.3,1.5
	L55.8,306.7z M64.1,306l17.1,6.1l-5.1,1.8l-17.1-6.1L64.1,306z M84.5,358v0.5l-25.4-9.2l5.4-1.9l20,7.1v0.4l20.7-7.4l4.3,1.5
	L84.5,358z M84.5,363.4v0.4l-33-11.8l5.4-1.9l27.6,9.9v0.4l28.2-10.1l4.3,1.5L84.5,363.4z M84.5,287.9v-0.5l32.9,11.8l-5.4,1.9
	l-27.5-9.8V291l-28.8,10.3l-4.3-1.5L84.5,287.9z M40.6,301.3l-4.2-1.5l5-1.8l4.2,1.5L40.6,301.3z M49,300.6l4.3,1.5l-5.1,1.8
	l-4.2-1.5L49,300.6z M84.5,368.9v0.4l-40.6-14.6l5.4-1.9l35.2,12.6v0.4l35.9-12.8l4.3,1.5L84.5,368.9z M84.5,374.2v0.4l-48.1-17.3
	l5.4-1.9l42.8,15.3v0.4l43.5-15.5l4.2,1.5L84.5,374.2z M84.5,277.1v-0.4l48,17.2l-5.4,1.9l-42.6-15.2v-0.4l-43.9,15.7l-4.2-1.5
	L84.5,277.1z M28.9,297.1l5-1.8l4.2,1.5l-5.1,1.8L28.9,297.1z M142.8,291.3L142.8,291.3v-0.7l-58.2-20.8v-0.4l-58.3,20.8v0.6h0v1.8
	h0v0.1l0.1,0l4.2,1.5l-4.2,1.5v0.6h0v1.8h0v0.1l0.1,0l4.2,1.5l-4.3,1.5v0.5h0v1.8h0v0.1l0.1-0.1l4.2,1.5l-4.3,1.5v0.5h0v1.8h0v0.1
	l0.2-0.1l4.2,1.5l-4.4,1.6v0.5h0v1.8h0v0.2l0.2-0.1l4.2,1.5l-4.4,1.6v0.5h0v1.8h0v0.2l0.2-0.1l16.9,6l-17.1,6.1v1.7h0v0.4l4.7,1.7
	l-4.7,1.7v1.6h0v0.5l4.6,1.7l-4.6,1.7v1.6h0v0.5l4.6,1.6l-4.6,1.7v1.5l0,0v0.6l4.6,1.6l-4.6,1.6v1.3l0,0v0.8l4.6,1.6l-4.6,1.6v1.3h0
	v0.8l58.2,20.8v0.4l58.3-20.8v-0.3v0v-1.8l-4.8-1.7l4.8-1.7v-0.2v0v-1.8L138,352l4.8-1.7v-0.2v-1.8l-4.8-1.7l4.8-1.7v-0.2V343
	l-4.9-1.7l4.9-1.7v-0.1v-1.8l-4.9-1.7l4.9-1.7V334v-1.8l-17.8-6.3l17.8-6.3v-1.4v0v-0.6l-4.8-1.7l4.8-1.7V313v-0.8l-4.7-1.7l4.7-1.7
	v-1.4v-0.5l-4.7-1.7l4.7-1.7V302v-0.7l-4.7-1.7l4.7-1.7v-1.4v0V296l-4.7-1.7l4.7-1.7V291.3z"/>
</svg>
